<svg width="32" height="32" viewBox="0 0 32 32" fill="none" xmlns="http://www.w3.org/2000/svg">
<g clip-path="url(#clip0_6_53)">
<path d="M1.12503 15.8648C1.12431 18.4845 1.81187 21.0423 3.11926 23.2969L1 31L8.91865 28.933C11.1089 30.12 13.5628 30.7419 16.0565 30.7421H16.0631C24.2953 30.7421 30.9965 24.0733 31 15.8766C31.0016 11.9046 29.4492 8.16969 26.6288 5.35972C23.8089 2.55 20.0584 1.00181 16.0625 1C7.82928 1 1.12843 7.66841 1.12503 15.8648Z" fill="url(#paint0_linear_6_53)"/>
<path d="M0.13375 15.856C0.132875 18.6506 0.86625 21.3787 2.2605 23.7834L0 32L8.44637 29.7953C10.7736 31.0585 13.3939 31.7245 16.0601 31.7255H16.067C24.848 31.7255 31.9963 24.6114 32 15.8687C32.0015 11.6316 30.3455 7.64736 27.3375 4.65017C24.3291 1.65334 20.3291 0.00174219 16.067 0C7.2845 0 0.13725 7.11313 0.13375 15.856ZM5.16388 23.3693L4.8485 22.8709C3.52275 20.7723 2.823 18.3472 2.824 15.857C2.82675 8.59014 8.76725 2.678 16.072 2.678C19.6095 2.67949 22.934 4.05234 25.4345 6.54318C27.9349 9.03427 29.3108 12.3457 29.3099 15.8677C29.3066 23.1345 23.366 29.0474 16.067 29.0474H16.0618C13.6851 29.0461 11.3542 28.4107 9.3215 27.21L8.83775 26.9244L3.8255 28.2326L5.16388 23.3693Z" fill="url(#paint1_linear_6_53)"/>
<path d="M12.0848 9.19662C11.7865 8.53888 11.4726 8.52561 11.189 8.51407C10.9568 8.50415 10.6913 8.5049 10.426 8.5049C10.1605 8.5049 9.72913 8.604 9.36451 8.99904C8.99951 9.39445 7.97101 10.35 7.97101 12.2934C7.97101 14.2369 9.39763 16.1152 9.59651 16.379C9.79563 16.6423 12.3506 20.7582 16.3971 22.3415C19.7601 23.6574 20.4445 23.3957 21.1744 23.3297C21.9044 23.264 23.5299 22.3744 23.8615 21.452C24.1934 20.5297 24.1934 19.7391 24.0939 19.5739C23.9944 19.4093 23.7289 19.3105 23.3308 19.113C22.9326 18.9156 20.9753 17.9598 20.6104 17.8279C20.2454 17.6962 19.98 17.6305 19.7145 18.026C19.449 18.4209 18.6866 19.3105 18.4543 19.5739C18.2221 19.838 17.9898 19.8708 17.5918 19.6733C17.1934 19.4751 15.9113 19.0584 14.3901 17.7128C13.2066 16.6658 12.4076 15.3727 12.1754 14.9772C11.9431 14.5823 12.1505 14.3682 12.3501 14.1714C12.529 13.9944 12.7484 13.7101 12.9476 13.4795C13.1461 13.2488 13.2124 13.0842 13.3451 12.8208C13.478 12.5571 13.4115 12.3264 13.3121 12.1288C13.2124 11.9313 12.4388 9.97764 12.0848 9.19662Z" fill="white"/>
</g>
<defs>
<linearGradient id="paint0_linear_6_53" x1="1501" y1="3001" x2="1501" y2="1" gradientUnits="userSpaceOnUse">
<stop stop-color="#1FAF38"/>
<stop offset="1" stop-color="#60D669"/>
</linearGradient>
<linearGradient id="paint1_linear_6_53" x1="1600" y1="3200" x2="1600" y2="0" gradientUnits="userSpaceOnUse">
<stop stop-color="#F9F9F9"/>
<stop offset="1" stop-color="white"/>
</linearGradient>
<clipPath id="clip0_6_53">
<rect width="32" height="32" fill="white"/>
</clipPath>
</defs>
</svg>
