<svg width="35" height="32" viewBox="0 0 32 32" fill="none" xmlns="http://www.w3.org/2000/svg">
<g clip-path="url(#clip0_6_57)">
<path d="M5.92442 26.076C8.59452 28.7479 12.2216 30.25 16 30.25C19.7783 30.25 23.4051 28.748 26.0752 26.0764C26.0753 26.0763 26.0754 26.0762 26.0755 26.0761C26.0755 26.0761 26.0756 26.076 26.0756 26.076C28.7472 23.4046 30.25 19.7779 30.25 16C30.25 12.2219 28.7471 8.59507 26.0752 5.92362C23.4051 3.25197 19.7783 1.75 16 1.75C12.2217 1.75 8.59477 3.252 5.92469 5.92371L5.92442 26.076ZM5.92442 26.076C5.92454 26.0761 5.92466 26.0763 5.92478 26.0764L6.80859 25.1924L5.92442 26.076ZM1.75 15.9997V16L5.92442 5.92399C3.25228 8.59639 1.75076 12.2206 1.75 15.9997Z" fill="url(#paint0_linear_6_57)" stroke="white" stroke-width="2.5"/>
<path d="M7.3372 15.8521C11.4191 14.0741 14.1403 12.9018 15.501 12.3354C19.3903 10.7182 20.1975 10.4373 20.7247 10.4278C20.8406 10.426 21.0988 10.4546 21.2672 10.5908C21.4072 10.7056 21.4466 10.8609 21.4663 10.97C21.4838 11.0789 21.5078 11.3272 21.4881 11.521C21.2781 13.7348 20.366 19.1068 19.9022 21.5864C19.7075 22.6355 19.3203 22.9872 18.9463 23.0216C18.1325 23.0964 17.5156 22.4843 16.7281 21.9683C15.4966 21.1605 14.801 20.6578 13.6044 19.8696C12.2219 18.9587 13.1188 18.458 13.9063 17.6399C14.1119 17.4257 17.695 14.1675 17.7628 13.8719C17.7716 13.835 17.7803 13.6971 17.6972 13.6245C17.6163 13.5517 17.496 13.5766 17.4085 13.5963C17.2838 13.6243 15.3172 14.9254 11.5022 17.4995C10.9444 17.8831 10.4391 18.0702 9.98408 18.0603C9.48533 18.0496 8.52283 17.7777 7.80751 17.5454C6.93251 17.2604 6.2347 17.1096 6.29595 16.6256C6.32658 16.3736 6.67439 16.1156 7.3372 15.8521Z" fill="white"/>
</g>
<defs>
<linearGradient id="paint0_linear_6_57" x1="1303" y1="3" x2="1303" y2="2603" gradientUnits="userSpaceOnUse">
<stop stop-color="#2AABEE"/>
<stop offset="1" stop-color="#229ED9"/>
</linearGradient>
<clipPath id="clip0_6_57">
<rect width="32" height="32" fill="white"/>
</clipPath>
</defs>
</svg>
