<svg width="57" height="60" viewBox="0 0 57 60" fill="none" xmlns="http://www.w3.org/2000/svg">
<path d="M46.1216 23.5364C46.1216 22.9614 45.6562 22.4946 45.0851 22.4946H40.2154H16.7846H11.915C11.3438 22.4946 10.8784 22.9614 10.8784 23.5364V55.8326H46.1205L46.1216 23.5364ZM44.0485 53.749H12.9525V24.5783H44.0485V53.749Z" fill="#C57B46"/>
<path d="M16.7846 20.4112H40.2144C43.4712 20.4112 46.1205 17.7473 46.1205 14.4749C46.1205 12.1559 44.7689 10.0379 42.6772 9.07313L39.7811 7.73753C35.5956 5.80706 31.805 3.2067 28.5005 0C25.1743 3.2317 21.3609 5.84456 17.1505 7.77921L14.329 9.07626C12.2332 10.0399 10.8784 12.1579 10.8784 14.4749C10.8795 17.7473 13.5288 20.4112 16.7846 20.4112ZM28.5005 5.82581V7.90943C26.2139 7.90943 24.3544 9.77844 24.3544 12.0767C24.3544 14.3749 26.2139 16.2439 28.5005 16.2439C30.7871 16.2439 32.6467 14.3749 32.6467 12.0767H34.7197C34.7197 15.524 31.9304 18.3275 28.5005 18.3275C25.0706 18.3275 22.2813 15.524 22.2813 12.0767C22.2813 8.62932 25.0706 5.82581 28.5005 5.82581Z" fill="#C57B46"/>
<path d="M41.9754 26.6621H15.0256V51.6656H41.9754V26.6621ZM17.0986 32.913H19.1717V34.9966H17.0986V32.913ZM35.7562 49.582H17.0986V47.4983H35.7562V49.582ZM39.9024 49.582H37.8293V47.4983H39.9024V49.582ZM39.9024 45.4147H17.0986V43.3311H39.9024V45.4147ZM39.9024 39.1638H25.82L23.3178 41.6788L20.8156 39.1638H17.0986V37.0802H21.6739L23.3178 38.7325L24.9618 37.0802H39.9024V39.1638ZM21.2448 34.9966V32.913H31.6101V34.9966H21.2448ZM39.9024 30.8294H38.2584L35.7562 33.3443L33.254 30.8294H17.0986V28.7457H34.1123L35.7562 30.398L37.4002 28.7457H39.9024V30.8294Z" fill="#C57B46"/>
<path d="M49.2312 57.9165H7.76984C7.19871 57.9165 6.73331 58.3832 6.73331 58.9583V60.0001H50.2677V58.9583C50.2677 58.3832 49.8023 57.9165 49.2312 57.9165Z" fill="#C57B46"/>
<path d="M8.80639 55.8329V54.9474L6.06787 46.0034L5.68642 48.6882C5.62838 49.0997 5.33193 49.4362 4.93286 49.5456C4.53276 49.6529 4.10882 49.5154 3.85072 49.1914L2.07721 46.9629L2.57578 50.4759C2.63072 50.8593 2.46902 51.2416 2.15599 51.4688C1.84296 51.6959 1.43145 51.7282 1.08629 51.5552C0.692404 51.3573 0.331691 51.176 0 51.0093C1.52474 53.768 2.40165 56.8518 2.56024 60.0002H4.65922V58.9583C4.65922 57.2352 6.05439 55.8329 7.76882 55.8329H8.80639Z" fill="#C57B46"/>
<path d="M55.9137 51.5552C55.5685 51.7282 55.1581 51.6959 54.844 51.4688C54.531 51.2416 54.3693 50.8593 54.4242 50.4759L54.9228 46.9629L53.1493 49.1914C52.8912 49.5154 52.4641 49.6518 52.0671 49.5456C51.6681 49.4362 51.3727 49.0986 51.3136 48.6882L50.9321 46.0034L48.1936 54.9474V55.8329H49.2301C50.9446 55.8329 52.3397 57.2352 52.3397 58.9583V60.0002H54.4387C54.5973 56.8528 55.4742 53.7691 56.999 51.0093C56.6683 51.176 56.3076 51.3573 55.9137 51.5552Z" fill="#C57B46"/>
</svg>
