<svg width="60" height="60" viewBox="0 0 60 60" fill="none" xmlns="http://www.w3.org/2000/svg">
<g clip-path="url(#clip0_13_131)">
<path d="M59.6908 0.309082H40.4537V12.0617H43.3609V30.0617L30 15.8349L16.6392 30.0617V12.0617H19.5464V0.309082H0.309326V12.0617H3.21654V59.6905H14.2269H16.7011H23.8145H36.3093H45.8969V59.6287H56.9073V11.9998H59.8145V0.309082H59.6908ZM2.78355 9.58743V2.78331H17.0722V9.58743H16.6392H3.21654H2.78355ZM9.89695 51.1544H7.42273V47.6287H9.89695V51.1544ZM9.89695 43.7318H7.42273V40.206H9.89695V43.7318ZM9.89695 36.3091H7.42273V32.7833H9.89695V36.3091ZM9.89695 28.8864H7.42273V25.3606H9.89695V28.8864ZM9.89695 21.4637H7.42273V17.9379H9.89695V21.4637ZM26.2269 57.2163V44.041H33.7732V57.2163H26.2269ZM23.7526 41.5668V57.2163H16.6392V33.6493L30 19.4225L43.3609 33.6493V57.2163H36.2475V41.5668H23.7526ZM52.5774 51.1544H50.1031V47.6287H52.5774V51.1544ZM52.5774 43.7318H50.1031V40.206H52.5774V43.7318ZM52.5774 36.3091H50.1031V32.7833H52.5774V36.3091ZM52.5774 28.8864H50.1031V25.3606H52.5774V28.8864ZM52.5774 21.4637H50.1031V17.9379H52.5774V21.4637ZM57.2165 9.58743H56.7836V9.52558H43.3609V9.58743H42.9279V2.78331H57.2165V9.58743Z" fill="#C57B46"/>
<path d="M30 26.9072C27.5258 26.9072 25.5464 28.8866 25.5464 31.3608C25.5464 33.8351 27.5258 35.8144 30 35.8144C32.4742 35.8144 34.4536 33.8351 34.4536 31.3608C34.4536 28.8866 32.4742 26.9072 30 26.9072Z" fill="#C57B46"/>
</g>
<defs>
<clipPath id="clip0_13_131">
<rect width="60" height="60" fill="white"/>
</clipPath>
</defs>
</svg>
