<svg width="60" height="60" viewBox="0 0 60 60" fill="none" xmlns="http://www.w3.org/2000/svg">
<path d="M10.0002 6V54H49.9998V6H10.0002ZM22.0002 13.9998C23.6556 13.9998 25.0002 15.3432 25.0002 16.9998C25.0002 18.6582 23.6556 19.9998 22.0002 19.9998C20.3448 19.9998 19.0002 18.6582 19.0002 16.9998C19.0002 15.3438 20.3448 13.9998 22.0002 13.9998ZM16.0002 25.9998C16.0002 23.7984 17.8008 21.9996 20.0004 21.9996H24C26.1996 21.9996 28.0002 23.7984 28.0002 25.9998V27.9996H16.0002V25.9998ZM24 46.0002H16.0002V42H24V46.0002ZM43.9998 46.0002H28.0002V42H43.9998V46.0002ZM43.9998 37.9998H16.0002V34.0002H43.9998V37.9998ZM43.9998 28.0002H31.9998V24H43.9998V28.0002ZM43.9998 19.9998H31.9998V15.9996H43.9998V19.9998Z" fill="#C57B46"/>
</svg>
