<svg width="60" height="60" viewBox="0 0 60 60" fill="none" xmlns="http://www.w3.org/2000/svg">
<path d="M23.7308 56.033C23.7308 56.033 23.7308 45.549 23.1641 42.5738C22.8808 41.3695 21.889 39.1735 20.8973 36.6942C18.6305 30.8855 17.8512 25.7143 22.1724 20.6848C23.5183 19.1263 24.4392 18.9846 24.4392 18.9846C24.4392 18.9846 25.0767 7.22548 25.0767 6.65878C25.0059 6.16291 22.0307 4.39195 21.9599 3.89609C21.1098 0.283336 38.8194 0.283336 38.0401 3.89609C37.8985 4.39195 34.9941 6.16291 34.9233 6.65878C34.8524 7.22548 35.49 18.9846 35.49 18.9846C35.49 18.9846 36.4817 19.1263 37.7568 20.6848C42.1488 25.7143 41.2987 30.8855 39.0319 36.6942C38.111 39.1735 37.0484 41.3695 36.8359 42.5738C36.2692 45.549 36.1983 56.033 36.1983 56.033C35.5608 58.1582 32.7981 58.7249 30.8146 58.7957C28.5478 58.7957 24.6517 58.7957 23.7308 56.033Z" fill="#C57B46"/>
</svg>
