<svg width="60" height="60" viewBox="0 0 60 60" fill="none" xmlns="http://www.w3.org/2000/svg">
<path d="M55.3125 46.8748H48.75V22.5748C48.75 17.5809 46.7662 12.7915 43.2349 9.2602C39.7037 5.72895 34.9143 3.74512 29.9203 3.74512C24.9264 3.74512 20.137 5.72895 16.6057 9.2602C13.0745 12.7915 11.0906 17.5809 11.0906 22.5748V46.8748H4.6875C4.43886 46.8748 4.2004 46.9736 4.02459 47.1494C3.84877 47.3252 3.75 47.5637 3.75 47.8123V55.3123C3.75 55.5609 3.84877 55.7994 4.02459 55.9752C4.2004 56.151 4.43886 56.2498 4.6875 56.2498H55.3125C55.5611 56.2498 55.7996 56.151 55.9754 55.9752C56.1512 55.7994 56.25 55.5609 56.25 55.3123V47.8123C56.25 47.5637 56.1512 47.3252 55.9754 47.1494C55.7996 46.9736 55.5611 46.8748 55.3125 46.8748ZM15.8625 23.0623C15.8028 19.2496 17.2576 15.5688 19.9078 12.8272C22.5581 10.0855 26.1874 8.50684 30 8.4373C33.8126 8.50684 37.4419 10.0855 40.0922 12.8272C42.7424 15.5688 44.1972 19.2496 44.1375 23.0623V46.8748H15.8625V23.0623ZM51.5625 52.4998H8.4375C8.18886 52.4998 7.9504 52.401 7.77459 52.2252C7.59877 52.0494 7.5 51.8109 7.5 51.5623C7.5 51.3137 7.59877 51.0752 7.77459 50.8994C7.9504 50.7236 8.18886 50.6248 8.4375 50.6248H51.5625C51.8111 50.6248 52.0496 50.7236 52.2254 50.8994C52.4012 51.0752 52.5 51.3137 52.5 51.5623C52.5 51.8109 52.4012 52.0494 52.2254 52.2252C52.0496 52.401 51.8111 52.4998 51.5625 52.4998Z" fill="#C57B46"/>
<path d="M30 10.3125C29.5365 10.3125 29.0833 10.45 28.6979 10.7075C28.3125 10.965 28.0121 11.3311 27.8347 11.7593C27.6573 12.1876 27.6109 12.6589 27.7013 13.1135C27.7917 13.5681 28.0149 13.9858 28.3427 14.3135C28.6705 14.6413 29.0881 14.8645 29.5428 14.955C29.9974 15.0454 30.4686 14.999 30.8969 14.8216C31.3252 14.6442 31.6912 14.3438 31.9488 13.9584C32.2063 13.5729 32.3438 13.1198 32.3438 12.6562C32.3438 12.0346 32.0968 11.4385 31.6573 10.999C31.2177 10.5594 30.6216 10.3125 30 10.3125Z" fill="#C57B46"/>
<path d="M25.9556 21.1693C26.0271 21.2695 26.1177 21.3547 26.2221 21.4199C26.3266 21.4851 26.4428 21.5291 26.5643 21.5494C26.6857 21.5697 26.81 21.5658 26.9299 21.5381C27.0499 21.5104 27.1632 21.4593 27.2634 21.3877L30 19.433L32.7365 21.3877C32.9389 21.5322 33.1904 21.5903 33.4357 21.5494C33.681 21.5084 33.8999 21.3717 34.0444 21.1693C34.1888 20.9669 34.247 20.7154 34.206 20.4701C34.165 20.2249 34.0283 20.0059 33.8259 19.8615L31.6134 18.2808L33.8259 16.7002C34.0283 16.5558 34.165 16.3368 34.206 16.0915C34.247 15.8463 34.1888 15.5948 34.0444 15.3924C33.8999 15.19 33.681 15.0533 33.4357 15.0123C33.1904 14.9714 32.9389 15.0295 32.7365 15.174L30 17.1287L27.2634 15.174C27.1632 15.1024 27.0499 15.0513 26.9299 15.0236C26.81 14.9959 26.6857 14.992 26.5643 15.0123C26.4428 15.0326 26.3266 15.0766 26.2221 15.1418C26.1177 15.207 26.0271 15.2922 25.9556 15.3924C25.8841 15.4926 25.833 15.6059 25.8053 15.7259C25.7775 15.8459 25.7737 15.9701 25.794 16.0915C25.8143 16.213 25.8583 16.3292 25.9235 16.4337C25.9887 16.5381 26.0738 16.6287 26.174 16.7002L28.3865 18.2808L26.174 19.8615C26.0738 19.933 25.9887 20.0236 25.9234 20.128C25.8582 20.2324 25.8142 20.3487 25.7939 20.4701C25.7737 20.5916 25.7775 20.7158 25.8052 20.8358C25.833 20.9557 25.8841 21.0691 25.9556 21.1693Z" fill="#C57B46"/>
<path d="M35.625 23.4375H24.375C24.1264 23.4375 23.8879 23.5363 23.7121 23.7121C23.5363 23.8879 23.4375 24.1264 23.4375 24.375V40.3125C23.4375 40.5611 23.5363 40.7996 23.7121 40.9754C23.8879 41.1512 24.1264 41.25 24.375 41.25H35.625C35.8736 41.25 36.1121 41.1512 36.2879 40.9754C36.4637 40.7996 36.5625 40.5611 36.5625 40.3125V24.375C36.5625 24.1264 36.4637 23.8879 36.2879 23.7121C36.1121 23.5363 35.8736 23.4375 35.625 23.4375Z" fill="#C57B46"/>
<path d="M18.75 44.0625C18.75 44.3111 18.8488 44.5496 19.0246 44.7254C19.2004 44.9012 19.4389 45 19.6875 45H40.3125C40.5611 45 40.7996 44.9012 40.9754 44.7254C41.1512 44.5496 41.25 44.3111 41.25 44.0625C41.25 43.8139 41.1512 43.5754 40.9754 43.3996C40.7996 43.2238 40.5611 43.125 40.3125 43.125H19.6875C19.4389 43.125 19.2004 43.2238 19.0246 43.3996C18.8488 43.5754 18.75 43.8139 18.75 44.0625Z" fill="#C57B46"/>
</svg>
