<svg width="60" height="60" viewBox="0 0 60 60" fill="none" xmlns="http://www.w3.org/2000/svg">
<g clip-path="url(#clip0_13_80)">
<path d="M58.3524 49.2071L57.3548 49.0024V29.5405L58.6143 30.1679C58.681 30.2012 58.7536 30.2179 58.8262 30.2179C58.9143 30.2179 59.0012 30.194 59.0774 30.1464C59.2179 30.0595 59.3024 29.9071 59.3024 29.7417V25.7881C59.3024 25.6345 59.2286 25.4893 59.1024 25.4L51.5786 20.0583C51.5524 20.0405 51.525 20.025 51.4964 20.0119L31.8679 11.2619V1.81667C31.8679 0.814286 31.0298 0 30 0C28.9702 0 28.1321 0.814286 28.1321 1.81667V11.2619L8.50357 20.0119C8.475 20.025 8.44762 20.0405 8.42143 20.0583L0.897619 25.4C0.771429 25.4893 0.697619 25.6345 0.697619 25.7881V29.7417C0.697619 29.9071 0.782143 30.0595 0.922619 30.1464C1.0631 30.2333 1.2381 30.2417 1.38571 30.1679L2.64524 29.5405V49.0238L1.66667 49.2155C0.701191 49.4048 0 50.2369 0 51.194V53.7536C0 54.525 0.441667 55.2167 1.15119 55.5607L9.35714 59.531C9.99048 59.8381 10.7 60 11.4095 60H48.5905C49.3 60 50.0095 59.8381 50.6429 59.531L58.8488 55.5607C59.5583 55.2167 60 54.525 60 53.7536V51.1821C60 50.2345 59.3071 49.4036 58.3524 49.2071ZM25.3214 47.7179H22.6762V41.1893C22.6762 37.3107 25.9619 34.1548 30 34.1548C34.0381 34.1548 37.3238 37.3107 37.3238 41.1893V47.7179H34.6786C34.4155 47.7179 34.2024 47.9321 34.2024 48.194V53.4357H25.7976V48.194C25.7976 47.9321 25.5845 47.7179 25.3214 47.7179ZM24.8452 48.6702V53.4357H12.5655V48.6702H24.8452ZM35.1548 48.6702H47.4345V53.4357H35.1548V48.6702ZM38.2762 47.7179V41.1893C38.2762 36.7857 34.5631 33.2024 30 33.2024C25.4369 33.2024 21.7238 36.7857 21.7238 41.1893V47.7179H12.5655V26.006H47.4345V47.7179H38.2762ZM8.47143 48.8524V52.669L4.25952 51.094C3.85714 50.944 3.59762 50.5833 3.59762 50.175V49.8071L8.47143 48.8524ZM3.59762 48.8369V37.5738C3.59762 36.4869 4.40476 35.531 5.51548 35.2988C6.26548 35.1429 7.02976 35.3262 7.61429 35.8012C8.15833 36.244 8.47143 36.8905 8.47143 37.5738V47.8821L3.59762 48.8369ZM8.21429 35.0619C7.40714 34.4048 6.35238 34.1524 5.32143 34.3667C4.64762 34.5071 4.05357 34.8417 3.59762 35.3012V29.0667L9.74762 26.006H11.6131V53.4357H11.0607C10.7024 53.4357 10.3524 53.3726 10.019 53.2476L9.42381 53.025V37.5738C9.42381 36.6024 8.98333 35.6869 8.21429 35.0619ZM48.3869 26.006H50.2524L56.4024 29.0667V35.3012C55.9464 34.8417 55.3524 34.5071 54.6786 34.3667C53.6476 34.1512 52.5929 34.4048 51.7857 35.0619C51.0167 35.6869 50.5762 36.6024 50.5762 37.5738V53.025L49.981 53.2476C49.6476 53.3726 49.2976 53.4357 48.9393 53.4357H48.3869V26.006ZM51.5286 47.806V37.5738C51.5286 36.8905 51.8417 36.244 52.3857 35.8012C52.9702 35.3262 53.7357 35.1429 54.4845 35.2988C55.5952 35.531 56.4024 36.4869 56.4024 37.5738V48.8071L51.5286 47.806ZM56.4024 49.7798V50.175C56.4024 50.5833 56.1429 50.944 55.7405 51.094L51.5286 52.669V48.7786L56.4024 49.7798ZM28.7095 12.0464H31.2905L49.0655 19.9702H10.9345L28.7095 12.0464Z" fill="#C57B46"/>
</g>
<defs>
<clipPath id="clip0_13_80">
<rect width="60" height="60" fill="white"/>
</clipPath>
</defs>
</svg>
