<svg width="60" height="42" viewBox="0 0 60 42" fill="none" xmlns="http://www.w3.org/2000/svg">
<g clip-path="url(#clip0_13_97)">
<path d="M0 42H4.5V34.0973H55.5V42H60V0H55.5V7.99154H4.5V0H0V42ZM55.5 23.3531L55.2353 23.7082L52.6765 21.0444L55.2353 18.3805L55.5 18.6469V23.3531ZM50.4706 21.0444L48.1765 23.2643L45.9706 21.0444L48.1765 18.7357L50.4706 21.0444ZM43.0588 21.0444L40.6765 23.3531L38.3824 21.0444L40.6765 18.6469L43.0588 21.0444ZM35.4706 21.0444L33.3529 23.2643L31.2353 21.0444L33.3529 18.8245L35.4706 21.0444ZM28.7647 21.0444L26.6471 23.2643L24.5294 21.0444L26.6471 18.8245L28.7647 21.0444ZM21.6176 21.0444L19.2353 23.3531L16.9412 21.0444L19.2353 18.6469L21.6176 21.0444ZM14.0294 21.0444L11.8235 23.2643L9.52941 21.0444L11.8235 18.7357L14.0294 21.0444ZM7.32353 21.0444L4.76471 23.7082L4.5 23.3531V18.6469L4.76471 18.3805L7.32353 21.0444ZM30 15.4503L27.6176 17.8478L30 20.2452L32.3824 17.8478L30 15.4503ZM33.6176 11.4545L30.8824 14.296L33.4412 16.7822L36.1765 14.0296L33.6176 11.4545ZM34.4118 17.759L37.0588 15.0063L39.7059 17.6702L37.0588 20.334L34.4118 17.759ZM38.0294 14.0296L40.6765 11.3658L43.3235 14.0296L40.6765 16.6934L38.0294 14.0296ZM41.6471 17.759L44.3824 15.0063L47.2059 17.759L44.4706 20.5116L41.6471 17.759ZM45.3529 13.9408L48 11.277L50.9118 14.1184L48.1765 16.7822L45.3529 13.9408ZM51.7059 20.1564L49.1471 17.6702L51.7941 15.0063L54.2647 17.4926L51.7059 20.1564ZM55.2353 16.5159L52.7647 14.0296L55.5 11.1882V16.2495L55.2353 16.5159ZM26.3824 11.4545L29.1176 14.296L26.5588 16.7822L23.8235 14.0296L26.3824 11.4545ZM25.5882 17.759L22.9412 15.0063L20.2941 17.6702L22.9412 20.334L25.5882 17.759ZM21.9706 14.0296L19.3235 11.3658L16.6765 14.0296L19.3235 16.6934L21.9706 14.0296ZM18.3529 17.759L15.6176 15.0063L12.7941 17.759L15.5294 20.5116L18.3529 17.759ZM14.6471 13.9408L12 11.277L9.08824 14.1184L11.8235 16.7822L14.6471 13.9408ZM8.29412 20.1564L10.8529 17.6702L8.20588 15.0063L5.73529 17.4926L8.29412 20.1564ZM4.67647 16.5159L7.23529 14.0296L4.5 11.1882V16.2495L4.67647 16.5159ZM30 26.5497L27.6176 24.1522L30 21.7548L32.3824 24.1522L30 26.5497ZM33.6176 30.5455L30.8824 27.7928L33.4412 25.2178L36.1765 27.9704L33.6176 30.5455ZM34.4118 24.3298L37.0588 27.0825L39.7059 24.4186L37.0588 21.666L34.4118 24.3298ZM38.0294 27.9704L40.6765 30.723L43.3235 28.0592L40.6765 25.3066L38.0294 27.9704ZM41.6471 24.3298L44.3824 27.0825L47.2059 24.241L44.4706 21.5772L41.6471 24.3298ZM45.3529 28.0592L48 30.723L50.9118 27.9704L48.1765 25.3066L45.3529 28.0592ZM51.7059 21.8436L49.1471 24.3298L51.7941 26.9937L54.2647 24.5962L51.7059 21.8436ZM55.2353 25.5729L52.7647 27.9704L55.5 30.8118V25.7505L55.2353 25.5729ZM26.3824 30.5455L29.1176 27.7928L26.5588 25.2178L23.8235 27.9704L26.3824 30.5455ZM25.5882 24.3298L22.9412 27.0825L20.2941 24.4186L22.9412 21.666L25.5882 24.3298ZM21.9706 27.9704L19.3235 30.723L16.6765 28.0592L19.3235 25.3066L21.9706 27.9704ZM18.3529 24.3298L15.6176 27.0825L12.7941 24.241L15.5294 21.5772L18.3529 24.3298ZM14.6471 28.0592L12 30.723L9.08824 27.9704L11.8235 25.3066L14.6471 28.0592ZM8.29412 21.8436L10.8529 24.3298L8.20588 26.9937L5.73529 24.5962L8.29412 21.8436ZM7.23529 27.9704L4.5 30.8118C4.5 24.8626 3.44118 24.3298 7.23529 27.9704Z" fill="#C57B46"/>
</g>
<defs>
<clipPath id="clip0_13_97">
<rect width="60" height="42" fill="white"/>
</clipPath>
</defs>
</svg>
