<svg width="60" height="60" viewBox="0 0 60 60" fill="none" xmlns="http://www.w3.org/2000/svg">
<path d="M58.887 57.3988C58.887 57.877 58.4957 58.2683 58.0174 58.2683C47.8899 58.3469 16.3946 58.3292 1.9826 58.3292C1.50435 58.3292 1.11304 57.9379 1.11304 57.4596C1.11304 56.9727 1.50435 56.5901 1.9826 56.5901L12.2522 56.5814V53.2509C12.2522 52.7727 12.6435 52.3813 13.1217 52.3813H46.8783C47.3565 52.3813 47.7478 52.7727 47.7478 53.2509V56.5379L58.0174 56.5292C58.513 56.5379 58.887 56.9205 58.887 57.3988Z" fill="#C57B46"/>
<path d="M37.9565 40.6729H22.0435V44.5511H37.9565V40.6729Z" fill="#C57B46"/>
<path d="M44.0434 34.5815H15.9565C15.4782 34.5815 15.0869 34.9729 15.0869 35.4511V50.6424H44.913V35.4511C44.913 34.9729 44.5217 34.5815 44.0434 34.5815ZM39.6956 45.4206C39.6956 45.899 39.3043 46.2902 38.826 46.2902H21.1739C20.6956 46.2902 20.3043 45.899 20.3043 45.4206V39.8033C20.3043 39.3163 20.6956 38.9337 21.1739 38.9337H38.826C39.3043 38.9337 39.6956 39.3163 39.6956 39.8033L39.6956 45.4206Z" fill="#C57B46"/>
<path d="M40.2696 23.4337C37.4435 26.1033 35.7304 29.2511 35.0174 32.8424H24.8261C24.1044 29.0163 22.7044 25.712 19.7305 23.625C20.1044 22.1381 21.3826 20.7207 23.5479 19.5815C24.8957 18.8685 26.3653 18.4511 27.8696 18.2772V15.1467C25.4087 14.1989 23.6348 11.625 23.6348 8.61633C23.6348 4.77281 26.4869 1.66846 30 1.66846C33.5131 1.66846 36.374 4.77281 36.374 8.61633C36.374 11.625 34.6 14.1989 32.1305 15.1467V18.2859C33.6957 18.4772 35.2261 18.9294 36.6 19.7206C38.2609 20.6685 39.5478 21.912 40.2696 23.4337Z" fill="#C57B46"/>
</svg>
