<svg width="72" height="72" viewBox="0 0 72 72" fill="none" xmlns="http://www.w3.org/2000/svg">
<path d="M36.2916 13.5981C28.031 13.5981 21.0528 20.423 21.0528 28.5021V54.713H51.5282V28.5014C51.5282 20.423 44.5522 13.5981 36.2916 13.5981ZM28.1642 24.2369H33.2431V19.1573H38.3242V24.2369H43.4038V29.3165H38.3242V40.4901H33.2431V29.3165H28.1642V24.2369ZM46.4494 49.6341H26.1324V47.603H46.4494V49.6341ZM46.4494 44.5545H26.1324V42.5227H46.4494V44.5545Z" fill="#C57B46"/>
<path d="M35.275 38.4596H36.2916V27.2845H41.3727V26.2678H36.2916V21.189H35.275V26.2678H30.1954V27.2845H35.275V38.4596Z" fill="#C57B46"/>
<path d="M69.6902 52.7179C66.4574 54.736 65.4883 57.1797 65.2255 58.7767H63.2721C63.3132 58.4621 63.3679 58.1107 63.437 57.7305C63.9698 54.8592 65.6085 49.7537 70.5974 47.8075L69.8594 45.9139C67.5122 46.8297 65.8037 48.3108 64.5509 49.9646C64.1448 47.644 62.9841 44.5797 59.9184 41.64L58.5122 43.1059C62.8545 47.2682 62.8171 51.6264 62.6861 52.9627C62.0265 51.3391 60.8537 49.4347 58.7966 47.4676L57.3919 48.9357C62.0366 53.376 61.4642 57.2071 61.4376 57.3691C61.3404 57.8961 61.2727 58.3663 61.2252 58.776H55.5948V28.4496C55.5948 17.7244 46.9353 8.99805 36.2923 8.99805C25.6485 8.99805 16.9898 17.7244 16.9898 28.4496V58.7767H12.1025C12.3746 57.6218 13.1925 55.9269 15.5743 54.4416L14.4993 52.7172C11.2637 54.7353 10.2953 57.179 10.0332 58.776H8.07838C8.11942 58.4613 8.17414 58.11 8.2447 57.7298C8.77606 54.8599 10.4133 49.7529 15.4051 47.8068L14.6671 45.9132C12.3192 46.829 10.6113 48.31 9.35782 49.9639C8.95246 47.6433 7.7911 44.579 4.72534 41.6392L3.31846 43.1052C7.66007 47.2668 7.62334 51.6235 7.49158 52.9612C6.83134 51.3369 5.6599 49.434 3.6043 47.4669L2.19958 48.935C6.84286 53.3752 6.27046 57.2078 6.24382 57.3684C6.1459 57.8954 6.07966 58.3656 6.03286 58.7752H4.79878V60.8071H67.7844V58.7752H67.2933C67.5677 57.6204 68.3849 55.9255 70.7652 54.4401L69.6902 52.7179ZM53.5622 56.7456H19.0209V28.5014C19.0209 19.1623 26.7674 11.5656 36.2916 11.5656C45.815 11.5656 53.5615 19.1623 53.5615 28.5014L53.5622 56.7456Z" fill="#C57B46"/>
</svg>
