<svg width="60" height="60" viewBox="0 0 60 60" fill="none" xmlns="http://www.w3.org/2000/svg">
<path d="M48.75 4.2002H11.25C9.92638 4.2002 8.84998 5.2766 8.84998 6.6002V54.6002C8.84998 55.9238 9.92638 57.0002 11.25 57.0002H48.75C50.0736 57.0002 51.15 55.9238 51.15 54.6002V6.6002C51.15 5.2766 50.0736 4.2002 48.75 4.2002ZM45.9 48.6002C45.9 49.9238 44.8236 51.0002 43.5 51.0002H16.5C15.1764 51.0002 14.1 49.9238 14.1 48.6002V12.6002C14.1 11.2766 15.1764 10.2002 16.5 10.2002H43.5C44.8236 10.2002 45.9 11.2766 45.9 12.6002V48.6002Z" fill="#C57B46"/>
<path d="M43.5 12H16.5C16.1694 12 15.9 12.2694 15.9 12.6V48.6C15.9 48.9312 16.1694 49.2 16.5 49.2H17.2794C17.151 48.288 17.1 47.1216 17.1 46.5C17.1 41.1102 20.4258 36.4872 25.131 34.5618C23.8698 32.796 23.1 30.4866 23.1 28.35C23.1 24.132 26.1954 20.7 30 20.7C33.8046 20.7 36.9 24.132 36.9 28.35C36.9 30.4866 36.1302 32.796 34.869 34.5618C39.5742 36.4872 42.9 41.1102 42.9 46.5C42.9 47.4114 42.7992 48.3162 42.6108 49.2H43.5C43.8312 49.2 44.1 48.9312 44.1 48.6V12.6C44.1 12.2694 43.8312 12 43.5 12Z" fill="#C57B46"/>
</svg>
