<svg width="60" height="60" viewBox="0 0 60 60" fill="none" xmlns="http://www.w3.org/2000/svg">
<path d="M10 55C10 49.6957 12.1071 44.6086 15.8579 40.8579C19.6086 37.1071 24.6957 35 30 35C35.3043 35 40.3914 37.1071 44.1421 40.8579C47.8929 44.6086 50 49.6957 50 55H45C45 51.0218 43.4197 47.2064 40.6066 44.3934C37.7936 41.5803 33.9782 40 30 40C26.0218 40 22.2064 41.5803 19.3934 44.3934C16.5804 47.2064 15 51.0218 15 55H10ZM30 32.5C21.7125 32.5 15 25.7875 15 17.5C15 9.2125 21.7125 2.5 30 2.5C38.2875 2.5 45 9.2125 45 17.5C45 25.7875 38.2875 32.5 30 32.5ZM30 27.5C35.525 27.5 40 23.025 40 17.5C40 11.975 35.525 7.5 30 7.5C24.475 7.5 20 11.975 20 17.5C20 23.025 24.475 27.5 30 27.5Z" fill="#C57B46"/>
</svg>
