<svg width="60" height="60" viewBox="0 0 60 60" fill="none" xmlns="http://www.w3.org/2000/svg">
<path d="M11.82 40.3426C7.95747 36.4776 6.02497 34.5476 5.30747 32.0401C4.58747 29.5326 5.20247 26.8701 6.43247 21.5476L7.13997 18.4776C8.17247 13.9976 8.68997 11.7576 10.2225 10.2226C11.755 8.68763 13.9975 8.17263 18.4775 7.14013L21.5475 6.43013C26.8725 5.20263 29.5325 4.58763 32.04 5.30513C34.5475 6.02513 36.4775 7.95763 40.34 11.8201L44.915 16.3951C51.6425 23.1201 55 26.4801 55 30.6551C55 34.8326 51.64 38.1926 44.9175 44.9151C38.1925 51.6401 34.8325 55.0001 30.655 55.0001C26.48 55.0001 23.1175 51.6401 16.395 44.9176L11.82 40.3426Z" stroke="#C57B46" stroke-width="4"/>
<path d="M38.475 38.4752C39.9375 37.0077 40.135 34.8327 38.915 33.6102C37.695 32.3877 35.5175 32.5877 34.0525 34.0527C32.59 35.5177 30.4125 35.7152 29.1925 34.4952C27.9725 33.2752 28.17 31.0977 29.635 29.6352M29.635 29.6352L28.75 28.7502M29.635 29.6352C30.4625 28.8052 31.5175 28.3852 32.5 28.3927M39.3575 39.3577L38.4725 38.4727C37.4725 39.4752 36.135 39.8852 35 39.6502" stroke="#C57B46" stroke-width="4" stroke-linecap="round"/>
<path d="M25.053 25.7333C27.0056 23.7807 27.0056 20.6148 25.053 18.6622C23.1004 16.7096 19.9346 16.7096 17.9819 18.6622C16.0293 20.6148 16.0293 23.7807 17.9819 25.7333C19.9346 27.6859 23.1004 27.6859 25.053 25.7333Z" stroke="#C57B46" stroke-width="4"/>
</svg>
